<svg viewBox="0 0 2400 800" xmlns="http://www.w3.org/2000/svg" preserveAspectRatio="xMidYMid slice" role="img">
  <defs>
    <linearGradient id="pSky" x1="0" y1="0" x2="0" y2="1">
      <stop offset="0" stop-color="#0B0E14"/>
      <stop offset=".62" stop-color="#131826"/>
      <stop offset="1" stop-color="#1B2030"/>
    </linearGradient>
    <linearGradient id="pDusk" x1="0" y1="0" x2="0" y2="1">
      <stop offset="0" stop-color="#C9A227" stop-opacity="0"/>
      <stop offset=".75" stop-color="#C9A227" stop-opacity=".16"/>
      <stop offset="1" stop-color="#B0603E" stop-opacity=".28"/>
    </linearGradient>
    <linearGradient id="pWater" x1="0" y1="0" x2="0" y2="1">
      <stop offset="0" stop-color="#17202f"/>
      <stop offset="1" stop-color="#0B0E14"/>
    </linearGradient>
    <g id="pTwrA">
      <rect x="-60" y="-300" width="120" height="300"/>
      <rect x="-72" y="-306" width="18" height="26"/>
      <rect x="54" y="-306" width="18" height="26"/>
      <rect x="-70" y="-322" width="14" height="16"/>
      <rect x="56" y="-322" width="14" height="16"/>
      <rect x="-8" y="-330" width="16" height="30"/>
    </g>
    <g id="pSlotsA">
      <rect x="-44" y="-286" width="16" height="56"/>
      <rect x="-20" y="-286" width="16" height="56"/>
      <rect x="4" y="-286" width="16" height="56"/>
      <rect x="28" y="-286" width="16" height="56"/>
    </g>
    <g id="pFrond" stroke="#2E6E5E" stroke-width="7" stroke-linecap="round" fill="none">
      <path d="M0,0 C-34,-46 -78,-64 -120,-64"/>
      <path d="M0,0 C-14,-58 -40,-92 -74,-108"/>
      <path d="M0,0 C6,-64 2,-104 -10,-130"/>
      <path d="M0,0 C22,-56 54,-86 92,-98"/>
      <path d="M0,0 C36,-40 80,-56 122,-56"/>
    </g>
  </defs>

  <g id="sky">
    <rect width="2400" height="800" fill="url(#pSky)"/>
    <rect y="330" width="2400" height="330" fill="url(#pDusk)"/>
    <g fill="#E8DCC8">
      <circle cx="140" cy="96" r="2.2" opacity=".85"/><circle cx="320" cy="180" r="1.4" opacity=".6"/>
      <circle cx="470" cy="70" r="1.8" opacity=".75"/><circle cx="610" cy="150" r="1.2" opacity=".5"/>
      <circle cx="760" cy="60" r="2" opacity=".8"/><circle cx="905" cy="200" r="1.3" opacity=".55"/>
      <circle cx="1040" cy="110" r="1.7" opacity=".7"/><circle cx="1180" cy="52" r="1.3" opacity=".6"/>
      <circle cx="1310" cy="168" r="2" opacity=".75"/><circle cx="1450" cy="90" r="1.4" opacity=".55"/>
      <circle cx="1590" cy="210" r="1.2" opacity=".5"/><circle cx="1720" cy="66" r="1.9" opacity=".8"/>
      <circle cx="1865" cy="152" r="1.3" opacity=".6"/><circle cx="2130" cy="220" r="1.5" opacity=".6"/>
      <circle cx="2260" cy="90" r="2" opacity=".8"/><circle cx="2350" cy="176" r="1.2" opacity=".5"/>
      <circle cx="240" cy="260" r="1.2" opacity=".45"/><circle cx="820" cy="300" r="1.2" opacity=".4"/>
      <circle cx="1520" cy="285" r="1.3" opacity=".45"/><circle cx="2010" cy="300" r="1.2" opacity=".4"/>
    </g>
    <g fill="#E6C15A">
      <circle cx="560" cy="230" r="1.8" opacity=".7"/><circle cx="1660" cy="250" r="1.6" opacity=".65"/>
      <circle cx="1140" cy="240" r="1.5" opacity=".6"/>
    </g>
    <path d="M1990,120 a58,58 0 1 0 40,100 a46,46 0 1 1 -40,-100 z" fill="#E6C15A" opacity=".9"/>
  </g>

  <g id="far">
    <rect x="0" y="600" width="560" height="200" fill="url(#pWater)"/>
    <g stroke="#C9A227" stroke-width="2.5" opacity=".4" stroke-linecap="round">
      <line x1="40" y1="636" x2="150" y2="636"/><line x1="220" y1="668" x2="360" y2="668"/>
      <line x1="90" y1="706" x2="200" y2="706"/><line x1="330" y1="726" x2="470" y2="726"/>
      <line x1="30" y1="762" x2="140" y2="762"/>
    </g>
    <g fill="#1C2334">
      <path d="M120,624 q64,-40 128,0 l-14,10 h-100 z"/>
      <path d="M186,548 l4,72 h-8 z"/>
    </g>
    <path d="M560,620 h120 v-96 h24 v-14 h10 v14 h24 v96 h130 v-70 h90 v70 h100 v-120 h20 v-12 h10 v12 h20 v120 h160 v-84 h100 v84 h140 v-108 h18 v-12 h10 v12 h18 v108 h170 v-64 h110 v64 h130 v-96 h22 v-14 h10 v14 h22 v96 h150 v-76 h96 v76 h130 v-112 h20 v-12 h10 v12 h20 v112 h156 v-58 h110 v58 h120 v180 h-1840 z" fill="#1C2334"/>
    <path d="M0,616 h560 v10 h-560 z" fill="#141a28"/>
  </g>

  <g id="near">
    <rect y="672" width="2400" height="128" fill="#0E1220"/>
    <g fill="#242C42">
      <use href="#pTwrA" transform="translate(430,676) scale(1.18)"/>
      <use href="#pTwrA" transform="translate(920,672) scale(0.92)"/>
      <use href="#pTwrA" transform="translate(1450,678) scale(1.32)"/>
      <use href="#pTwrA" transform="translate(2010,674) scale(1.05)"/>
    </g>
    <g fill="#131826">
      <use href="#pSlotsA" transform="translate(430,676) scale(1.18)"/>
      <use href="#pSlotsA" transform="translate(920,672) scale(0.92)"/>
      <use href="#pSlotsA" transform="translate(1450,678) scale(1.32)"/>
      <use href="#pSlotsA" transform="translate(2010,674) scale(1.05)"/>
    </g>
    <g fill="#242C42">
      <path d="M180,676 v-150 h190 v150 z"/>
      <path d="M620,676 v-118 h260 v118 z"/>
      <path d="M1090,676 v-136 h280 v136 z"/>
      <path d="M1640,676 v-120 h300 v120 z"/>
      <path d="M2150,676 v-140 h250 v140 z"/>
      <rect x="196" y="-536" width="0" height="0"/>
    </g>
    <g fill="#E6C15A" opacity=".85">
      <rect x="238" y="586" width="22" height="34"/>
      <rect x="306" y="586" width="22" height="34"/>
      <path d="M700,614 a26,26 0 0 1 52,0 v44 h-52 z"/>
      <path d="M1160,600 a24,24 0 0 1 48,0 v58 h-48 z"/>
      <path d="M1258,600 a24,24 0 0 1 48,0 v58 h-48 z"/>
      <rect x="1710" y="596" width="20" height="40"/>
      <rect x="1780" y="596" width="20" height="40"/>
      <rect x="1850" y="596" width="20" height="40"/>
      <path d="M2230,604 a22,22 0 0 1 44,0 v52 h-44 z"/>
    </g>
    <g fill="#C9A227" opacity=".55">
      <rect x="470" y="430" width="14" height="40" transform="scale(1)"/>
      <rect x="1490" y="400" width="16" height="46"/>
    </g>
    <use href="#pFrond" transform="translate(1030,676) scale(1.06)"/>
    <use href="#pFrond" transform="translate(1065,676) scale(-0.88,0.88)"/>
    <rect x="1022" y="600" width="16" height="76" fill="#1d2434"/>
    <rect x="1058" y="616" width="14" height="60" fill="#1d2434"/>
    <path d="M0,676 h2400 v6 h-2400 z" fill="#C9A227" opacity=".18"/>
  </g>
</svg>
