<svg viewBox="0 0 400 400" xmlns="http://www.w3.org/2000/svg" role="img">
  <defs>
    <linearGradient id="tmBg" x1="0" y1="0" x2="0" y2="1">
      <stop offset="0" stop-color="#0B0E14"/><stop offset="1" stop-color="#131826"/>
    </linearGradient>
    <clipPath id="tmClip"><circle cx="200" cy="200" r="172"/></clipPath>
  </defs>
  <circle cx="200" cy="200" r="172" fill="url(#tmBg)"/>
  <g clip-path="url(#tmClip)">
    <g fill="#E8DCC8">
      <circle cx="100" cy="90" r="1.6" opacity=".65"/><circle cx="310" cy="80" r="1.4" opacity=".55"/>
      <circle cx="330" cy="150" r="1.2" opacity=".45"/>
    </g>
    <!-- souq arch hint behind -->
    <path d="M60,400 v-180 a140,150 0 0 1 280,0 v180" fill="none" stroke="#C9A227" stroke-width="4" opacity=".35"/>
    <!-- kandura shoulders -->
    <path d="M74,400 c0-72 54-108 126-108 c72,0 126,36 126,108 z" fill="#E8DCC8"/>
    <path d="M200,296 l-16,40 h32 z" fill="#D8C9AC"/>
    <!-- neck -->
    <rect x="180" y="248" width="40" height="50" fill="#C9996B"/>
    <!-- head -->
    <ellipse cx="200" cy="196" rx="58" ry="66" fill="#C9996B"/>
    <!-- short beard suggestion -->
    <path d="M156,222 a58,52 0 0 0 88,0 c-6,32 -22,46 -44,46 c-22,0 -38,-14 -44,-46 z" fill="#4A3A2C"/>
    <!-- ghutra draped over head and shoulders -->
    <path d="M134,190 a66,66 0 0 1 132,0 v10 a66,60 0 0 0 -132,0 z" fill="#E8DCC8"/>
    <path d="M138,196 c-14,34 -18,72 -10,104 l-34,0 c-6,-46 8,-86 44,-104 z" fill="#E8DCC8"/>
    <path d="M262,196 c14,34 18,72 10,104 l34,0 c6,-46 -8,-86 -44,-104 z" fill="#E8DCC8"/>
    <!-- agal: double black cord -->
    <path d="M138,164 a64,42 0 0 1 124,0" fill="none" stroke="#131826" stroke-width="11"/>
    <path d="M140,178 a62,40 0 0 1 120,0" fill="none" stroke="#131826" stroke-width="8"/>
    <!-- folded textile bolts across the base -->
    <g transform="translate(0,332)">
      <rect x="52" y="0" width="296" height="22" rx="6" fill="#B0603E"/>
      <rect x="52" y="22" width="296" height="22" rx="6" fill="#2E6E5E"/>
      <rect x="52" y="44" width="296" height="22" rx="6" fill="#C9A227"/>
      <g stroke="#0B0E14" stroke-width="2.4" opacity=".3">
        <line x1="120" y1="0" x2="120" y2="66"/><line x1="200" y1="0" x2="200" y2="66"/>
        <line x1="280" y1="0" x2="280" y2="66"/>
      </g>
      <path d="M52,0 q-14,22 0,44 q-12,12 0,22" fill="none" stroke="#E8DCC8" stroke-width="3" opacity=".6"/>
    </g>
  </g>
  <circle cx="200" cy="200" r="172" fill="none" stroke="#C9A227" stroke-width="6"/>
  <circle cx="200" cy="200" r="184" fill="none" stroke="#C9A227" stroke-width="2" opacity=".5"/>
  <g fill="#E6C15A">
    <circle cx="200" cy="16" r="4"/><circle cx="200" cy="384" r="4"/>
    <circle cx="16" cy="200" r="4"/><circle cx="384" cy="200" r="4"/>
  </g>
</svg>
